<svg width="30" height="31" viewBox="0 0 30 31" fill="none" xmlns="http://www.w3.org/2000/svg">
<path d="M22.5 12.5938H20.625C20.6243 11.8232 20.3277 11.0844 19.8004 10.5396C19.2731 9.99471 18.5582 9.68827 17.8125 9.6875V7.75C19.0552 7.75154 20.2467 8.26235 21.1254 9.1704C22.0042 10.0784 22.4985 11.3096 22.5 12.5938Z" fill="white"/>
<path d="M26.25 12.5938H24.375C24.373 10.7959 23.6809 9.07224 22.4507 7.80095C21.2204 6.52966 19.5523 5.81455 17.8125 5.8125V3.875C20.0495 3.87757 22.1941 4.79697 23.7759 6.4315C25.3577 8.06602 26.2475 10.2822 26.25 12.5938ZM24.375 28.0938H24.2156C5.79372 26.9991 3.1781 10.9372 2.81247 6.03531C2.75533 5.26685 2.99593 4.5064 3.48134 3.92123C3.96676 3.33607 4.65724 2.97411 5.40091 2.91497C5.47528 2.90916 5.54997 2.90625 5.62497 2.90625H10.5656C10.9411 2.90588 11.3081 3.02203 11.619 3.23966C11.9299 3.45729 12.1704 3.76637 12.3093 4.12688L13.7343 7.75C13.8716 8.10219 13.9056 8.48826 13.8323 8.86028C13.7589 9.23229 13.5814 9.57384 13.3218 9.8425L11.325 11.9253C11.6356 13.7575 12.4841 15.4467 13.7553 16.7637C15.0265 18.0808 16.6589 18.962 18.4312 19.2878L20.4656 17.205C20.7295 16.9397 21.0631 16.7606 21.4249 16.69C21.7867 16.6193 22.1606 16.6603 22.5 16.8078L26.0343 18.2706C26.378 18.4187 26.6711 18.6692 26.8765 18.9901C27.0818 19.311 27.1901 19.6878 27.1875 20.0725V25.1875C27.1875 25.9583 26.8912 26.6975 26.3637 27.2425C25.8363 27.7876 25.1209 28.0938 24.375 28.0938ZM5.62497 4.84375C5.50186 4.84337 5.37988 4.86805 5.26599 4.91638C5.15211 4.96471 5.04855 5.03575 4.96123 5.12543C4.87392 5.21512 4.80455 5.3217 4.7571 5.43909C4.70964 5.55648 4.68503 5.68238 4.68466 5.80959C4.68466 5.83672 4.6856 5.86352 4.68747 5.89C5.11872 11.625 7.88435 25.1875 24.3187 26.1562C24.5669 26.1716 24.8107 26.0845 24.9967 25.9141C25.1827 25.7437 25.2956 25.504 25.3106 25.2476L25.3125 25.1875V20.0725L21.7781 18.6097L19.0875 21.3706L18.6375 21.3125C10.4812 20.2566 9.37497 11.8284 9.37497 11.7413L9.31872 11.2763L11.9812 8.49594L10.575 4.84375H5.62497Z" fill="white"/>
</svg>
