<svg width="28" height="27" viewBox="0 0 28 27" fill="none" xmlns="http://www.w3.org/2000/svg">
<path d="M13.1766 25.411C14.6096 25.411 15.9931 25.1887 17.2844 24.7821C16.6467 23.9825 16.1083 23.1137 15.6801 22.1933C14.8632 23.3067 13.9771 23.8228 13.1766 23.8228C12.0945 23.8228 10.8593 22.8858 9.84632 20.7926C9.46078 19.9785 9.15315 19.1322 8.92727 18.2642H14.8303C14.85 17.721 14.9274 17.189 15.0559 16.676H8.57481C8.34593 15.3641 8.23243 14.0359 8.23552 12.7055C8.23552 11.3031 8.35575 9.96589 8.57481 8.73504H17.7785C17.9761 9.85312 18.0947 11.0586 18.1145 12.3212C18.6119 11.994 19.1537 11.7256 19.7384 11.5271C19.6959 10.5918 19.5986 9.65968 19.4469 8.73504H23.9483C24.2942 9.60696 24.5297 10.5313 24.6384 11.4921C25.2544 11.6938 25.8259 11.9718 26.3464 12.3132C26.2664 9.8182 25.4261 7.40115 23.9302 5.36385C22.4344 3.32654 20.3493 1.75926 17.9354 0.857677C15.5214 -0.0439089 12.8855 -0.23985 10.3567 0.294317C7.82797 0.828484 5.51842 2.06909 3.71642 3.86125C1.91442 5.6534 0.699813 7.9177 0.224251 10.3714C-0.251312 12.8252 0.0332379 15.3596 1.04237 17.6584C2.05151 19.9571 3.74052 21.9183 5.89852 23.2971C8.05653 24.6758 10.5879 25.4111 13.1766 25.411ZM13.1766 1.58819C14.2587 1.58819 15.494 2.52522 16.507 4.61846C16.8644 5.35855 17.1756 6.20982 17.4276 7.14685H8.92563C9.17762 6.20982 9.48891 5.35855 9.84797 4.61846C10.8576 2.52522 12.0929 1.58819 13.1766 1.58819ZM8.3541 3.94665C7.86774 4.97391 7.49083 6.04615 7.22917 7.14685H3.18898C4.57948 4.82948 6.78814 3.0718 9.4115 2.19488C9.01457 2.71898 8.66045 3.31297 8.3541 3.94665ZM6.90471 8.73504C6.69155 10.0485 6.58581 11.3761 6.58847 12.7055C6.58847 14.0872 6.69883 15.4245 6.90635 16.676H2.40499C1.90269 15.4083 1.64589 14.0625 1.64735 12.7055C1.64735 11.3079 1.91582 9.96747 2.40499 8.73504H6.90635H6.90471ZM7.22917 18.2642C7.51905 19.4442 7.89952 20.5226 8.3541 21.4644C8.66045 22.0981 9.01457 22.692 9.4115 23.2161C6.78814 22.3392 4.57948 20.5815 3.18898 18.2642H7.23082H7.22917ZM16.9418 2.19488C19.5652 3.07167 21.7739 4.82939 23.1643 7.14685H19.1224C18.8608 6.04615 18.4839 4.97392 17.9975 3.94665C17.7043 3.33132 17.3501 2.74468 16.9401 2.19488H16.9418ZM28 18.5532C28 15.3244 25.5871 12.7071 22.237 12.7071C18.8886 12.7071 16.4707 15.3244 16.4707 18.5532C16.4707 20.9736 18.0881 24.1595 21.8335 26.869C22.0723 27.0437 22.4017 27.0437 22.6405 26.869C26.3892 24.1595 28 20.9736 28 18.5532ZM24.7059 18.2642C24.7059 18.896 24.4456 19.5019 23.9823 19.9487C23.519 20.3955 22.8906 20.6465 22.2354 20.6465C21.5801 20.6465 20.9517 20.3955 20.4884 19.9487C20.0251 19.5019 19.7648 18.896 19.7648 18.2642C19.7648 17.6323 20.0251 17.0264 20.4884 16.5796C20.9517 16.1329 21.5801 15.8819 22.2354 15.8819C22.8906 15.8819 23.519 16.1329 23.9823 16.5796C24.4456 17.0264 24.7059 17.6323 24.7059 18.2642Z" fill="white"/>
</svg>
